<svg width="203" height="46" viewBox="0 0 203 46" fill="none" xmlns="http://www.w3.org/2000/svg">
<g clip-path="url(#clip0_1_1073)">
<path d="M3.2225 38.3273L21.8213 41.5821C22.9336 41.7765 23.8906 41.7117 24.6921 41.3878C25.4937 41.064 26.1098 40.5053 26.5406 39.7118C26.9714 38.9184 27.1868 37.9225 27.1868 36.7241V16.6933C27.1868 15.0416 26.7615 13.8541 25.9109 13.1308C25.0602 12.4075 23.8061 11.9055 22.1486 11.6248L4.10581 8.46714C3.27701 8.3268 2.55455 8.36999 1.93841 8.59669C1.32226 8.8234 0.845155 9.21203 0.507092 9.76259C0.169031 10.3132 0 10.9933 0 11.8029V34.6514C0 35.6878 0.269904 36.5137 0.809712 37.1291C1.34952 37.7444 2.15378 38.1438 3.2225 38.3273ZM3.86045 35.7526C3.44605 35.6878 3.13798 35.534 2.93623 35.2911C2.73449 35.0483 2.63362 34.7109 2.63362 34.279V12.2401C2.63362 11.8083 2.77266 11.4872 3.05074 11.2767C3.32882 11.0661 3.70777 11.0041 4.18761 11.0904L22.0176 14.1833C22.8464 14.3345 23.4762 14.5963 23.9071 14.9687C24.3378 15.3411 24.5531 15.9052 24.5531 16.6609V36.4489C24.5531 37.3665 24.2996 38.0412 23.7925 38.473C23.2854 38.9049 22.5902 39.0399 21.7069 38.878L3.86045 35.7526ZM23.0973 13.6166H25.7308V9.82738C25.7308 8.1217 25.1856 6.88562 24.0952 6.11914C23.0046 5.35266 21.4887 5.13675 19.5476 5.47141L2.45367 8.46714L3.43514 10.718L20.4801 7.91657C21.2979 7.77624 21.9386 7.868 22.402 8.19187C22.8656 8.51573 23.0973 9.02851 23.0973 9.73021V13.6166Z" fill="black" fill-opacity="0.85"/>
<g clip-path="url(#clip1_1_1073)">
<path d="M8.85799 22.2064C9.31357 22.6874 9.82335 23.0987 10.3873 23.4402C10.9513 23.7818 11.5538 24.0416 12.195 24.2197C12.8361 24.3978 13.4965 24.4868 14.1762 24.4868C14.9808 24.4832 15.757 24.351 16.5047 24.0902C17.2523 23.8295 17.9366 23.4549 18.5575 22.9665L18.2434 22.3496C17.6739 22.8233 17.042 23.1859 16.3476 23.4375C15.6532 23.689 14.9294 23.8167 14.1762 23.8203C13.1989 23.824 12.274 23.6239 11.4014 23.2199C10.5288 22.816 9.78386 22.2504 9.16661 21.5233L8.85799 22.2064ZM8.2683 25.3517C8.98475 25.9613 9.7664 26.4469 10.6133 26.8086C11.4601 27.1704 12.3364 27.4026 13.2421 27.5054C14.1477 27.6083 15.0506 27.5789 15.9508 27.4173C16.8509 27.2557 17.7143 26.9583 18.541 26.525L18.5245 25.7703C17.7235 26.233 16.8785 26.5534 15.9894 26.7315C15.1002 26.9096 14.2083 26.9473 13.3137 26.8445C12.4191 26.7416 11.5548 26.502 10.7207 26.1256C9.88673 25.7492 9.12436 25.2415 8.43364 24.6025L8.2683 25.3517ZM11.0018 29.136L11.7899 29.3177C11.6062 28.8734 11.4647 28.418 11.3655 27.9517C11.2663 27.4853 11.2131 27.0115 11.2057 26.5304C11.1543 25.6161 11.2452 24.7274 11.4785 23.8644C11.7118 23.0014 12.071 22.1944 12.5559 21.4434C13.0409 20.6925 13.6343 20.0305 14.336 19.4577L13.6306 19.1822C12.9362 19.7992 12.3502 20.4997 11.8726 21.2837C11.3949 22.0677 11.0413 22.905 10.8117 23.7955C10.582 24.6861 10.4911 25.6014 10.5389 26.5415C10.5462 26.9821 10.5885 27.4191 10.6656 27.8525C10.7428 28.2858 10.8548 28.7136 11.0018 29.136ZM14.6336 29.6813L15.2564 29.4059C14.742 28.6788 14.348 27.892 14.0742 27.0455C13.8005 26.199 13.6637 25.3259 13.6637 24.4262C13.6637 23.5706 13.7849 22.7425 14.0274 21.942C14.2699 21.1414 14.6245 20.3941 15.091 19.7L14.4407 19.4687C13.9704 20.2068 13.6122 20.9963 13.3661 21.8373C13.1199 22.6782 12.9968 23.5412 12.9968 24.4262C12.9968 25.3774 13.1364 26.2982 13.4157 27.1887C13.6949 28.0792 14.1009 28.9101 14.6336 29.6813ZM17.8797 27.6322L18.3261 27.1254C17.7088 26.7728 17.1752 26.3303 16.7251 25.7978C16.275 25.2654 15.926 24.6723 15.678 24.0186C15.43 23.365 15.3005 22.6782 15.2895 21.9585C15.2858 21.5729 15.317 21.191 15.3832 20.8127C15.4493 20.4345 15.5521 20.0691 15.6917 19.7166L15.047 19.5348C14.9 19.9204 14.7916 20.3161 14.7218 20.7218C14.652 21.1276 14.6189 21.5417 14.6226 21.964C14.6336 22.7462 14.7714 23.4944 15.0359 24.2087C15.3005 24.9229 15.6752 25.5729 16.1602 26.1586C16.6452 26.7444 17.2183 27.2356 17.8797 27.6322ZM11.2002 24.4207C11.4353 24.4207 11.6365 24.3363 11.8037 24.1674C11.9708 23.9984 12.0544 23.7946 12.0544 23.5559C12.0544 23.3172 11.9708 23.1143 11.8037 22.9472C11.6365 22.7801 11.4353 22.6966 11.2002 22.6966C10.9577 22.6966 10.7529 22.7801 10.5857 22.9472C10.4185 23.1143 10.335 23.3172 10.335 23.5559C10.335 23.7946 10.4185 23.9984 10.5857 24.1674C10.7529 24.3363 10.9577 24.4207 11.2002 24.4207ZM15.4217 24.8779C15.6532 24.8779 15.8516 24.7944 16.0169 24.6273C16.1823 24.4602 16.2649 24.2592 16.2649 24.0241C16.2649 23.7928 16.1823 23.5945 16.0169 23.4292C15.8516 23.264 15.6532 23.1813 15.4217 23.1813C15.1829 23.1813 14.9808 23.264 14.8155 23.4292C14.6502 23.5945 14.5675 23.7928 14.5675 24.0241C14.5675 24.2592 14.6502 24.4602 14.8155 24.6273C14.9808 24.7944 15.1829 24.8779 15.4217 24.8779ZM13.7794 28.0618C14.0146 28.0618 14.2157 27.9783 14.3829 27.8111C14.55 27.6441 14.6336 27.4412 14.6336 27.2025C14.6336 26.9638 14.55 26.7609 14.3829 26.5938C14.2157 26.4267 14.0146 26.3432 13.7794 26.3432C13.5369 26.3432 13.3321 26.4267 13.1649 26.5938C12.9977 26.7609 12.9142 26.9638 12.9142 27.2025C12.9142 27.4412 12.9977 27.6441 13.1649 27.8111C13.3321 27.9783 13.5369 28.0618 13.7794 28.0618ZM13.592 30.1605C14.3599 30.1605 15.0828 30.0136 15.7606 29.7198C16.4385 29.4261 17.0365 29.0203 17.5545 28.5025C18.0726 27.9847 18.4785 27.387 18.7724 26.7095C19.0664 26.032 19.2134 25.3094 19.2134 24.5419C19.2134 23.7744 19.0664 23.0519 18.7724 22.3744C18.4785 21.6968 18.0726 21.0992 17.5545 20.5814C17.0365 20.0636 16.4376 19.6578 15.7579 19.364C15.0782 19.0702 14.3544 18.9233 13.5865 18.9233C12.8186 18.9233 12.0958 19.0702 11.4179 19.364C10.74 19.6578 10.143 20.0636 9.62679 20.5814C9.11058 21.0992 8.70552 21.6968 8.41159 22.3744C8.11767 23.0519 7.9707 23.7744 7.9707 24.5419C7.9707 25.3094 8.11767 26.032 8.41159 26.7095C8.70552 27.387 9.1115 27.9847 9.62954 28.5025C10.1476 29.0203 10.7455 29.4261 11.4234 29.7198C12.1013 30.0136 12.8241 30.1605 13.592 30.1605ZM13.592 29.4114C12.927 29.4114 12.3006 29.2838 11.7127 29.0285C11.1249 28.7733 10.6068 28.4217 10.1586 27.9737C9.71037 27.5256 9.35858 27.0078 9.10324 26.4203C8.84789 25.8327 8.72021 25.2066 8.72021 24.5419C8.72021 23.8772 8.84789 23.2511 9.10324 22.6636C9.35858 22.076 9.70946 21.5582 10.1559 21.1102C10.6023 20.6622 11.1194 20.3105 11.7072 20.0553C12.2951 19.8001 12.9215 19.6725 13.5865 19.6725C14.2515 19.6725 14.878 19.8001 15.4658 20.0553C16.0537 20.3105 16.5726 20.6622 17.0227 21.1102C17.4727 21.5582 17.8254 22.076 18.0808 22.6636C18.3362 23.2511 18.4639 23.8772 18.4639 24.5419C18.4639 25.2066 18.3362 25.8327 18.0808 26.4203C17.8254 27.0078 17.4737 27.5256 17.0254 27.9737C16.5772 28.4217 16.0591 28.7733 15.4713 29.0285C14.8834 29.2838 14.257 29.4114 13.592 29.4114Z" fill="#007AFF"/>
</g>
</g>
<path d="M43.9094 18.2515V21.2789H40.703V29.4813C40.703 30.048 40.8174 30.4407 41.046 30.6594C41.2747 30.8682 41.6923 30.9726 42.2988 30.9726H43.9094V34H41.6426C40.0419 34 38.8538 33.6769 38.0783 33.0306C37.3127 32.3844 36.93 31.3852 36.93 30.033V21.2789H34.1859V18.2515H36.93V13.9565H40.703V18.2515H43.9094ZM52.6266 34.3579C51.0557 34.3579 49.6936 34.005 48.5403 33.2991C47.387 32.5932 46.4972 31.6238 45.8708 30.391C45.2544 29.1482 44.9462 27.7314 44.9462 26.1407C44.9462 24.54 45.2643 23.1232 45.9006 21.8904C46.5469 20.6476 47.4367 19.6732 48.5701 18.9673C49.7035 18.2515 51.006 17.8936 52.4774 17.8936C53.9886 17.8936 55.311 18.2416 56.4444 18.9375C57.5778 19.6335 58.4577 20.5979 59.084 21.8307C59.7104 23.0536 60.0236 24.4704 60.0236 26.081V27.11H48.6298C48.6795 28.3926 49.0573 29.4266 49.7632 30.212C50.4691 30.9974 51.4534 31.3902 52.716 31.3902C53.6606 31.3902 54.441 31.1863 55.0574 30.7787C55.6739 30.3611 56.0914 29.8143 56.3102 29.1382H59.8297C59.6309 30.1623 59.1934 31.067 58.5173 31.8525C57.8512 32.6379 57.0111 33.2543 55.997 33.7017C54.9829 34.1392 53.8594 34.3579 52.6266 34.3579ZM48.6596 24.5151H56.4146C56.2952 23.3916 55.8876 22.5068 55.1917 21.8605C54.5056 21.2043 53.6208 20.8762 52.5371 20.8762C51.4434 20.8762 50.5536 21.2043 49.8676 21.8605C49.1915 22.5068 48.7889 23.3916 48.6596 24.5151ZM69.2478 34.3579C67.7167 34.3579 66.3695 34.0099 65.2063 33.314C64.053 32.618 63.1532 31.6536 62.507 30.4208C61.8707 29.188 61.5525 27.7612 61.5525 26.1407C61.5525 24.5201 61.8707 23.0934 62.507 21.8605C63.1532 20.6178 64.053 19.6484 65.2063 18.9524C66.3695 18.2465 67.7167 17.8936 69.2478 17.8936C70.5701 17.8936 71.7483 18.1521 72.7823 18.6691C73.8162 19.1761 74.6464 19.882 75.2728 20.7868C75.9091 21.6816 76.2819 22.7156 76.3913 23.8887H72.7077C72.5685 23.0437 72.2056 22.3576 71.619 21.8307C71.0424 21.2938 70.2669 21.0254 69.2925 21.0254C68.0597 21.0254 67.0953 21.4877 66.3993 22.4123C65.7034 23.337 65.3554 24.5797 65.3554 26.1407C65.3554 27.6917 65.7034 28.9295 66.3993 29.8541C67.0953 30.7688 68.0597 31.2261 69.2925 31.2261C70.2768 31.2261 71.0424 30.9676 71.5892 30.4506C72.136 29.9237 72.4989 29.2228 72.6779 28.3478H76.3913C76.3018 29.5011 75.9389 30.5302 75.3026 31.4349C74.6763 32.3396 73.8411 33.0555 72.7972 33.5824C71.7632 34.0994 70.5801 34.3579 69.2478 34.3579ZM82.3793 25.0967V34H78.6211V11.7791H82.3793V20.5631C83.4729 18.8132 85.0637 17.9383 87.1516 17.9383C88.802 17.9383 90.1492 18.4702 91.1931 19.534C92.247 20.5979 92.7739 22.1389 92.7739 24.1572V34H89.0008V24.7537C89.0008 23.6004 88.7224 22.7255 88.1657 22.129C87.6089 21.5324 86.8284 21.2342 85.8243 21.2342C84.84 21.2342 84.0198 21.5424 83.3636 22.1588C82.7074 22.7752 82.3793 23.7545 82.3793 25.0967ZM107.24 34.2535C105.67 34.2535 104.367 33.8608 103.333 33.0754C102.309 32.28 101.797 31.0969 101.797 29.526C101.797 28.3329 102.085 27.4133 102.662 26.767C103.249 26.1108 104.009 25.6336 104.944 25.3353C105.888 25.0371 106.902 24.8333 107.986 24.7239C109.448 24.5549 110.467 24.4057 111.043 24.2765C111.62 24.1472 111.908 23.8142 111.908 23.2773V23.158C111.908 22.4819 111.65 21.9301 111.133 21.5026C110.626 21.0751 109.925 20.8613 109.03 20.8613C108.115 20.8613 107.37 21.0751 106.793 21.5026C106.226 21.9301 105.918 22.4769 105.868 23.1431H102.244C102.334 21.5821 102.985 20.3245 104.198 19.37C105.411 18.4155 107.047 17.9383 109.105 17.9383C111.153 17.9383 112.753 18.4155 113.907 19.37C115.06 20.3245 115.637 21.6219 115.637 23.2624V34H111.938V31.7779H111.879C111.501 32.4739 110.954 33.0605 110.238 33.5377C109.522 34.0149 108.523 34.2535 107.24 34.2535ZM108.165 31.4647C109.398 31.4647 110.332 31.1466 110.969 30.5103C111.605 29.864 111.923 29.0836 111.923 28.1689V26.4688C111.695 26.6179 111.252 26.7571 110.596 26.8863C109.94 27.0056 109.224 27.1249 108.448 27.2443C107.643 27.3636 106.942 27.5922 106.346 27.9303C105.759 28.2584 105.466 28.7803 105.466 29.4962C105.466 30.1126 105.709 30.5948 106.197 30.9428C106.684 31.2907 107.34 31.4647 108.165 31.4647ZM125.8 40.4426C123.722 40.4426 122.072 39.9952 120.849 39.1004C119.626 38.2056 118.91 36.9926 118.702 35.4615H122.385C122.564 36.1376 122.957 36.6496 123.563 36.9976C124.17 37.3555 124.916 37.5345 125.8 37.5345C126.974 37.5345 127.883 37.2163 128.53 36.58C129.186 35.9437 129.514 35.0241 129.514 33.821V31.42H129.499C128.992 32.3446 128.331 33.0257 127.515 33.4631C126.7 33.8906 125.776 34.1044 124.742 34.1044C123.37 34.1044 122.172 33.7614 121.147 33.0754C120.123 32.3894 119.328 31.4448 118.761 30.2418C118.205 29.0289 117.926 27.632 117.926 26.0512C117.926 24.4604 118.21 23.0536 118.776 21.8307C119.343 20.6078 120.138 19.6534 121.162 18.9673C122.186 18.2813 123.37 17.9383 124.712 17.9383C125.736 17.9383 126.66 18.157 127.486 18.5945C128.321 19.022 128.997 19.6882 129.514 20.5929H129.529V18.2515H133.242V33.5973C133.242 35.2179 132.919 36.5303 132.273 37.5345C131.627 38.5486 130.742 39.2843 129.618 39.7416C128.495 40.2089 127.222 40.4426 125.8 40.4426ZM125.621 31.0024C126.854 31.0024 127.839 30.55 128.574 29.6453C129.32 28.7306 129.693 27.5177 129.693 26.0064C129.693 24.4952 129.32 23.2872 128.574 22.3825C127.839 21.4678 126.854 21.0105 125.621 21.0105C124.458 21.0105 123.519 21.443 122.803 22.3079C122.087 23.1729 121.729 24.4057 121.729 26.0064C121.729 27.6171 122.087 28.8549 122.803 29.7199C123.519 30.5749 124.458 31.0024 125.621 31.0024ZM143.227 34.3579C141.656 34.3579 140.294 34.005 139.141 33.2991C137.987 32.5932 137.098 31.6238 136.471 30.391C135.855 29.1482 135.547 27.7314 135.547 26.1407C135.547 24.54 135.865 23.1232 136.501 21.8904C137.147 20.6476 138.037 19.6732 139.171 18.9673C140.304 18.2515 141.606 17.8936 143.078 17.8936C144.589 17.8936 145.911 18.2416 147.045 18.9375C148.178 19.6335 149.058 20.5979 149.684 21.8307C150.311 23.0536 150.624 24.4704 150.624 26.081V27.11H139.23C139.28 28.3926 139.658 29.4266 140.364 30.212C141.07 30.9974 142.054 31.3902 143.316 31.3902C144.261 31.3902 145.041 31.1863 145.658 30.7787C146.274 30.3611 146.692 29.8143 146.911 29.1382H150.43C150.231 30.1623 149.794 31.067 149.118 31.8525C148.452 32.6379 147.612 33.2543 146.597 33.7017C145.583 34.1392 144.46 34.3579 143.227 34.3579ZM139.26 24.5151H147.015C146.896 23.3916 146.488 22.5068 145.792 21.8605C145.106 21.2043 144.221 20.8762 143.137 20.8762C142.044 20.8762 141.154 21.2043 140.468 21.8605C139.792 22.5068 139.389 23.3916 139.26 24.5151ZM156.642 25.0967V34H152.884V18.2515H156.582V20.6675C157.676 18.848 159.286 17.9383 161.414 17.9383C163.065 17.9383 164.412 18.4702 165.456 19.534C166.51 20.5979 167.036 22.1389 167.036 24.1572V34H163.263V24.7537C163.263 23.6004 162.985 22.7255 162.428 22.129C161.871 21.5324 161.091 21.2342 160.087 21.2342C159.103 21.2342 158.282 21.5424 157.626 22.1588C156.97 22.7752 156.642 23.7545 156.642 25.0967ZM176.171 34.3132C174.799 34.3132 173.601 33.9702 172.577 33.2842C171.553 32.5981 170.758 31.6437 170.191 30.4208C169.634 29.188 169.356 27.7513 169.356 26.1108C169.356 24.5002 169.639 23.0834 170.206 21.8605C170.773 20.6277 171.568 19.6683 172.592 18.9823C173.616 18.2863 174.799 17.9383 176.141 17.9383C177.165 17.9383 178.085 18.1471 178.9 18.5647C179.716 18.9823 180.377 19.6235 180.884 20.4885H180.914V11.7791H184.672V34H180.973V31.5989H180.943C180.446 32.5136 179.78 33.1947 178.945 33.6421C178.12 34.0895 177.195 34.3132 176.171 34.3132ZM177.051 31.1665C178.284 31.1665 179.268 30.7091 180.004 29.7944C180.75 28.8698 181.122 27.6419 181.122 26.1108C181.122 24.5797 180.75 23.3568 180.004 22.4422C179.268 21.5175 178.284 21.0552 177.051 21.0552C175.888 21.0552 174.948 21.4927 174.232 22.3676C173.517 23.2425 173.159 24.4903 173.159 26.1108C173.159 27.7414 173.517 28.9941 174.232 29.869C174.948 30.734 175.888 31.1665 177.051 31.1665ZM192.509 34.2535C190.938 34.2535 189.636 33.8608 188.602 33.0754C187.578 32.28 187.066 31.0969 187.066 29.526C187.066 28.3329 187.354 27.4133 187.931 26.767C188.517 26.1108 189.278 25.6336 190.212 25.3353C191.157 25.0371 192.171 24.8333 193.255 24.7239C194.716 24.5549 195.735 24.4057 196.312 24.2765C196.889 24.1472 197.177 23.8142 197.177 23.2773V23.158C197.177 22.4819 196.918 21.9301 196.401 21.5026C195.894 21.0751 195.193 20.8613 194.299 20.8613C193.384 20.8613 192.638 21.0751 192.062 21.5026C191.495 21.9301 191.187 22.4769 191.137 23.1431H187.513C187.603 21.5821 188.254 20.3245 189.467 19.37C190.68 18.4155 192.315 17.9383 194.373 17.9383C196.421 17.9383 198.022 18.4155 199.175 19.37C200.329 20.3245 200.905 21.6219 200.905 23.2624V34H197.207V31.7779H197.147C196.769 32.4739 196.222 33.0605 195.507 33.5377C194.791 34.0149 193.792 34.2535 192.509 34.2535ZM193.434 31.4647C194.667 31.4647 195.601 31.1466 196.237 30.5103C196.874 29.864 197.192 29.0836 197.192 28.1689V26.4688C196.963 26.6179 196.521 26.7571 195.865 26.8863C195.208 27.0056 194.493 27.1249 193.717 27.2443C192.912 27.3636 192.211 27.5922 191.614 27.9303C191.028 28.2584 190.734 28.7803 190.734 29.4962C190.734 30.1126 190.978 30.5948 191.465 30.9428C191.952 31.2907 192.608 31.4647 193.434 31.4647Z" fill="black"/>
<defs>
<clipPath id="clip0_1_1073">
<rect width="27.1868" height="37.3818" fill="white" transform="translate(0 4.30908)"/>
</clipPath>
<clipPath id="clip1_1_1073">
<rect width="11.2427" height="11.2427" fill="white" transform="translate(7.97266 18.9243)"/>
</clipPath>
</defs>
</svg>
