<svg width="600" height="320" viewBox="0 0 600 320" fill="none" xmlns="http://www.w3.org/2000/svg">
<g clip-path="url(#clip0_1_335)">
<path d="M263.101 121.032L329.273 132.612C333.231 133.304 336.636 133.073 339.487 131.921C342.339 130.769 344.531 128.781 346.064 125.958C347.597 123.135 348.363 119.591 348.363 115.328V44.0606C348.363 38.184 346.85 33.9591 343.824 31.3857C340.797 28.8123 336.335 27.0263 330.438 26.0276L266.244 14.793C263.295 14.2937 260.725 14.4474 258.532 15.254C256.34 16.0606 254.643 17.4433 253.44 19.4021C252.237 21.361 251.636 23.7807 251.636 26.6614V107.954C251.636 111.641 252.596 114.579 254.517 116.769C256.437 118.958 259.299 120.379 263.101 121.032ZM265.371 111.871C263.896 111.641 262.8 111.094 262.083 110.23C261.365 109.365 261.006 108.165 261.006 106.628V28.2169C261.006 26.6806 261.501 25.5379 262.49 24.789C263.479 24.04 264.828 23.8192 266.535 24.1264L329.972 35.1306C332.921 35.6683 335.161 36.5997 336.694 37.9248C338.227 39.2499 338.993 41.2568 338.993 43.9454V114.349C338.993 117.614 338.091 120.014 336.286 121.55C334.482 123.087 332.009 123.567 328.866 122.991L265.371 111.871ZM333.813 33.1141H343.183V19.6326C343.183 13.564 341.243 9.16617 337.363 6.43914C333.483 3.71211 328.09 2.94393 321.184 4.13461L260.366 14.793L263.858 22.8013L324.501 12.8342C327.411 12.3349 329.691 12.6614 331.339 13.8136C332.989 14.9659 333.813 16.7903 333.813 19.2869V33.1141Z" fill="black" fill-opacity="0.85"/>
<g clip-path="url(#clip1_1_335)">
<path d="M283.157 63.6806C284.778 65.3922 286.591 66.8555 288.598 68.0706C290.605 69.2857 292.748 70.2101 295.029 70.8437C297.31 71.4774 299.66 71.7943 302.078 71.7943C304.941 71.7812 307.703 71.3108 310.363 70.3832C313.023 69.4555 315.458 68.1229 317.667 66.3851L316.549 64.1901C314.523 65.8756 312.275 67.1658 309.804 68.0608C307.333 68.9558 304.758 69.4098 302.078 69.4229C298.601 69.4359 295.31 68.7239 292.206 67.2867C289.101 65.8495 286.451 63.8374 284.255 61.2504L283.157 63.6806ZM281.059 74.8712C283.608 77.0401 286.389 78.768 289.402 80.0549C292.415 81.3419 295.533 82.1682 298.755 82.534C301.977 82.8999 305.189 82.7955 308.392 82.2206C311.595 81.6457 314.667 80.5874 317.608 79.0457L317.549 76.3607C314.699 78.0069 311.693 79.1468 308.529 79.7806C305.366 80.4142 302.193 80.5482 299.01 80.1824C295.827 79.8165 292.752 78.964 289.784 77.6248C286.817 76.2856 284.105 74.4793 281.647 72.2059L281.059 74.8712ZM290.784 88.3353L293.588 88.9819C292.935 87.401 292.431 85.7809 292.078 84.1217C291.725 82.4622 291.536 80.7768 291.51 79.0652C291.327 75.8119 291.65 72.6501 292.48 69.5797C293.31 66.5093 294.588 63.6381 296.314 60.9662C298.039 58.2943 300.15 55.9392 302.647 53.901L300.137 52.9211C297.667 55.1161 295.582 57.6084 293.882 60.3979C292.183 63.1873 290.925 66.1663 290.108 69.3347C289.291 72.5031 288.967 75.7597 289.137 79.1045C289.163 80.6723 289.314 82.227 289.588 83.7689C289.863 85.3105 290.261 86.8327 290.784 88.3353ZM303.706 90.2755L305.922 89.2956C304.092 86.7086 302.69 83.9093 301.716 80.8976C300.742 77.886 300.255 74.7797 300.255 71.5787C300.255 68.5344 300.686 65.5881 301.549 62.7399C302.412 59.8916 303.673 57.2327 305.333 54.7634L303.019 53.9402C301.346 56.5664 300.072 59.3755 299.196 62.3675C298.32 65.3595 297.882 68.4299 297.882 71.5787C297.882 74.9627 298.379 78.2389 299.373 81.4072C300.366 84.5756 301.81 87.5317 303.706 90.2755ZM315.255 82.985L316.843 81.1818C314.647 79.9275 312.748 78.3531 311.147 76.4587C309.546 74.5642 308.304 72.4541 307.421 70.1284C306.539 67.8027 306.078 65.3595 306.039 62.7987C306.026 61.4268 306.137 60.068 306.373 58.7222C306.608 57.3765 306.974 56.0764 307.47 54.8222L305.177 54.1754C304.654 55.5473 304.268 56.9551 304.02 58.3988C303.771 59.8426 303.653 61.3157 303.667 62.8182C303.706 65.6012 304.196 68.2633 305.137 70.8046C306.078 73.3458 307.412 75.6583 309.137 77.7422C310.863 79.8263 312.902 81.5739 315.255 82.985ZM291.49 71.5591C292.327 71.5591 293.042 71.2586 293.637 70.6576C294.232 70.0566 294.529 69.3314 294.529 68.4821C294.529 67.6329 294.232 66.911 293.637 66.3165C293.042 65.7221 292.327 65.4248 291.49 65.4248C290.627 65.4248 289.899 65.7221 289.304 66.3165C288.709 66.911 288.412 67.6329 288.412 68.4821C288.412 69.3314 288.709 70.0566 289.304 70.6576C289.899 71.2586 290.627 71.5591 291.49 71.5591ZM306.51 73.1857C307.333 73.1857 308.039 72.8884 308.627 72.294C309.216 71.6995 309.51 70.9842 309.51 70.148C309.51 69.3249 309.216 68.6193 308.627 68.0314C308.039 67.4434 307.333 67.1495 306.51 67.1495C305.66 67.1495 304.941 67.4434 304.353 68.0314C303.765 68.6193 303.471 69.3249 303.471 70.148C303.471 70.9842 303.765 71.6995 304.353 72.294C304.941 72.8884 305.66 73.1857 306.51 73.1857ZM300.667 84.5136C301.503 84.5136 302.219 84.2163 302.814 83.6217C303.408 83.0273 303.706 82.3054 303.706 81.4561C303.706 80.607 303.408 79.8851 302.814 79.2905C302.219 78.6961 301.503 78.3989 300.667 78.3989C299.804 78.3989 299.075 78.6961 298.48 79.2905C297.886 79.8851 297.588 80.607 297.588 81.4561C297.588 82.3054 297.886 83.0273 298.48 83.6217C299.075 84.2163 299.804 84.5136 300.667 84.5136ZM300 91.9805C302.732 91.9805 305.304 91.4579 307.716 90.4126C310.127 89.3674 312.255 87.9237 314.098 86.0814C315.941 84.2392 317.386 82.1128 318.431 79.7021C319.477 77.2916 320 74.721 320 71.9902C320 69.2596 319.477 66.6889 318.431 64.2783C317.386 61.8677 315.941 59.7413 314.098 57.8991C312.255 56.0568 310.124 54.6131 307.706 53.5679C305.288 52.5226 302.712 52 299.98 52C297.248 52 294.676 52.5226 292.265 53.5679C289.853 54.6131 287.729 56.0568 285.892 57.8991C284.056 59.7413 282.614 61.8677 281.569 64.2783C280.523 66.6889 280 69.2596 280 71.9902C280 74.721 280.523 77.2916 281.569 79.7021C282.614 82.1128 284.059 84.2392 285.902 86.0814C287.745 87.9237 289.873 89.3674 292.284 90.4126C294.696 91.4579 297.268 91.9805 300 91.9805ZM300 89.3152C297.634 89.3152 295.405 88.8611 293.314 87.953C291.222 87.0449 289.379 85.7939 287.784 84.1999C286.19 82.6059 284.938 80.7637 284.029 78.6732C283.121 76.5827 282.667 74.3551 282.667 71.9902C282.667 69.6254 283.121 67.3977 284.029 65.3072C284.938 63.2167 286.186 61.3745 287.774 59.7805C289.363 58.1865 291.203 56.9355 293.294 56.0275C295.386 55.1194 297.614 54.6654 299.98 54.6654C302.346 54.6654 304.575 55.1194 306.667 56.0275C308.758 56.9355 310.605 58.1865 312.206 59.7805C313.807 61.3745 315.062 63.2167 315.97 65.3072C316.879 67.3977 317.333 69.6254 317.333 71.9902C317.333 74.3551 316.879 76.5827 315.97 78.6732C315.062 80.7637 313.81 82.6059 312.216 84.1999C310.621 85.7939 308.778 87.0449 306.686 87.953C304.595 88.8611 302.366 89.3152 300 89.3152Z" fill="#007AFF"/>
</g>
</g>
<path d="M35.4971 221.969V232.74H24.0892V261.923C24.0892 263.939 24.496 265.336 25.3096 266.115C26.1232 266.857 27.6088 267.229 29.7666 267.229H35.4971V278H27.432C21.7369 278 17.5098 276.85 14.7507 274.551C12.0269 272.252 10.665 268.697 10.665 263.886V232.74H0.902018V221.969H10.665V206.687H24.0892V221.969H35.4971ZM66.5116 279.273C60.9227 279.273 56.0765 278.018 51.9732 275.506C47.8699 272.995 44.704 269.546 42.4755 265.16C40.2824 260.738 39.1858 255.697 39.1858 250.037C39.1858 244.342 40.3177 239.302 42.5816 234.915C44.8809 230.494 48.0468 227.027 52.0794 224.516C56.1119 221.969 60.7458 220.695 65.981 220.695C71.3578 220.695 76.0624 221.933 80.095 224.41C84.1275 226.886 87.2581 230.317 89.4866 234.703C91.7151 239.054 92.8294 244.095 92.8294 249.825V253.486H52.2916C52.4685 258.049 53.8126 261.728 56.3241 264.523C58.8356 267.317 62.3376 268.715 66.83 268.715C70.1905 268.715 72.9673 267.989 75.1604 266.539C77.3535 265.053 78.8392 263.108 79.6174 260.702H92.1396C91.4321 264.346 89.8757 267.565 87.4703 270.359C85.1003 273.154 82.1113 275.347 78.5032 276.939C74.8951 278.495 70.8979 279.273 66.5116 279.273ZM52.3977 244.254H79.9889C79.5644 240.257 78.1141 237.109 75.6379 234.809C73.1972 232.475 70.049 231.307 66.1933 231.307C62.3022 231.307 59.1363 232.475 56.6956 234.809C54.2902 237.109 52.8576 240.257 52.3977 244.254ZM125.648 279.273C120.2 279.273 115.407 278.035 111.269 275.559C107.165 273.083 103.964 269.652 101.665 265.266C99.401 260.879 98.2691 255.803 98.2691 250.037C98.2691 244.272 99.401 239.196 101.665 234.809C103.964 230.388 107.165 226.939 111.269 224.463C115.407 221.951 120.2 220.695 125.648 220.695C130.353 220.695 134.544 221.615 138.223 223.454C141.902 225.258 144.856 227.77 147.084 230.989C149.348 234.173 150.675 237.851 151.064 242.025H137.958C137.463 239.019 136.172 236.578 134.084 234.703C132.033 232.793 129.274 231.838 125.807 231.838C121.421 231.838 117.99 233.483 115.514 236.772C113.037 240.062 111.799 244.484 111.799 250.037C111.799 255.556 113.037 259.96 115.514 263.249C117.99 266.504 121.421 268.131 125.807 268.131C129.309 268.131 132.033 267.211 133.978 265.372C135.924 263.497 137.215 261.003 137.852 257.89H151.064C150.745 261.994 149.454 265.655 147.19 268.874C144.962 272.093 141.99 274.64 138.276 276.514C134.597 278.354 130.388 279.273 125.648 279.273ZM172.368 246.323V278H158.997V198.941H172.368V230.193C176.259 223.967 181.919 220.854 189.347 220.854C195.219 220.854 200.012 222.747 203.727 226.532C207.476 230.317 209.351 235.8 209.351 242.98V278H195.927V245.103C195.927 241 194.936 237.887 192.956 235.764C190.975 233.642 188.198 232.581 184.625 232.581C181.123 232.581 178.205 233.677 175.87 235.87C173.536 238.064 172.368 241.548 172.368 246.323ZM260.821 278.902C255.232 278.902 250.598 277.505 246.92 274.71C243.276 271.88 241.454 267.671 241.454 262.082C241.454 257.837 242.48 254.565 244.532 252.266C246.619 249.931 249.325 248.233 252.65 247.172C256.01 246.111 259.619 245.386 263.474 244.997C268.674 244.395 272.3 243.865 274.352 243.405C276.403 242.945 277.429 241.76 277.429 239.85V239.425C277.429 237.02 276.509 235.057 274.67 233.536C272.866 232.015 270.372 231.254 267.188 231.254C263.934 231.254 261.281 232.015 259.229 233.536C257.213 235.057 256.117 237.002 255.94 239.372H243.046C243.365 233.819 245.681 229.344 249.997 225.948C254.313 222.552 260.131 220.854 267.454 220.854C274.741 220.854 280.436 222.552 284.539 225.948C288.642 229.344 290.694 233.96 290.694 239.797V278H277.535V270.094H277.323C275.979 272.57 274.033 274.657 271.486 276.355C268.939 278.053 265.384 278.902 260.821 278.902ZM264.111 268.98C268.497 268.98 271.822 267.848 274.086 265.584C276.35 263.285 277.482 260.508 277.482 257.254V251.205C276.668 251.735 275.094 252.231 272.76 252.69C270.425 253.115 267.878 253.539 265.119 253.964C262.254 254.388 259.76 255.202 257.638 256.405C255.551 257.572 254.507 259.429 254.507 261.976C254.507 264.169 255.374 265.885 257.107 267.123C258.84 268.361 261.175 268.98 264.111 268.98ZM326.855 300.922C319.462 300.922 313.59 299.33 309.239 296.146C304.889 292.963 302.342 288.647 301.599 283.2H314.705C315.341 285.605 316.739 287.427 318.896 288.665C321.054 289.938 323.707 290.575 326.855 290.575C331.029 290.575 334.266 289.443 336.565 287.179C338.9 284.915 340.067 281.643 340.067 277.363V268.821H340.014C338.21 272.11 335.858 274.533 332.957 276.09C330.057 277.611 326.767 278.371 323.088 278.371C318.207 278.371 313.944 277.151 310.301 274.71C306.657 272.27 303.827 268.909 301.811 264.629C299.83 260.313 298.84 255.343 298.84 249.719C298.84 244.059 299.848 239.054 301.864 234.703C303.88 230.352 306.71 226.956 310.354 224.516C313.997 222.075 318.207 220.854 322.982 220.854C326.625 220.854 329.915 221.633 332.851 223.189C335.822 224.71 338.228 227.08 340.067 230.299H340.12V221.969H353.332V276.567C353.332 282.333 352.183 287.002 349.883 290.575C347.584 294.183 344.436 296.801 340.439 298.428C336.442 300.091 331.914 300.922 326.855 300.922ZM326.219 267.335C330.605 267.335 334.107 265.725 336.724 262.507C339.377 259.252 340.704 254.937 340.704 249.56C340.704 244.183 339.377 239.885 336.724 236.666C334.107 233.412 330.605 231.785 326.219 231.785C322.08 231.785 318.737 233.324 316.19 236.401C313.643 239.479 312.37 243.865 312.37 249.56C312.37 255.29 313.643 259.694 316.19 262.772C318.737 265.814 322.08 267.335 326.219 267.335ZM388.857 279.273C383.268 279.273 378.422 278.018 374.318 275.506C370.215 272.995 367.049 269.546 364.821 265.16C362.628 260.738 361.531 255.697 361.531 250.037C361.531 244.342 362.663 239.302 364.927 234.915C367.226 230.494 370.392 227.027 374.425 224.516C378.457 221.969 383.091 220.695 388.326 220.695C393.703 220.695 398.408 221.933 402.44 224.41C406.473 226.886 409.603 230.317 411.832 234.703C414.06 239.054 415.175 244.095 415.175 249.825V253.486H374.637C374.814 258.049 376.158 261.728 378.669 264.523C381.181 267.317 384.683 268.715 389.175 268.715C392.536 268.715 395.313 267.989 397.506 266.539C399.699 265.053 401.184 263.108 401.963 260.702H414.485C413.777 264.346 412.221 267.565 409.816 270.359C407.446 273.154 404.456 275.347 400.848 276.939C397.24 278.495 393.243 279.273 388.857 279.273ZM374.743 244.254H402.334C401.91 240.257 400.459 237.109 397.983 234.809C395.542 232.475 392.394 231.307 388.539 231.307C384.647 231.307 381.482 232.475 379.041 234.809C376.635 237.109 375.203 240.257 374.743 244.254ZM436.585 246.323V278H423.214V221.969H436.373V230.564C440.264 224.091 445.995 220.854 453.564 220.854C459.436 220.854 464.23 222.747 467.944 226.532C471.693 230.317 473.568 235.8 473.568 242.98V278H460.144V245.103C460.144 241 459.153 237.887 457.173 235.764C455.192 233.642 452.415 232.581 448.842 232.581C445.34 232.581 442.422 233.677 440.087 235.87C437.753 238.064 436.585 241.548 436.585 246.323ZM506.068 279.114C501.187 279.114 496.924 277.894 493.281 275.453C489.637 273.012 486.808 269.617 484.791 265.266C482.81 260.879 481.82 255.768 481.82 249.931C481.82 244.201 482.828 239.16 484.844 234.809C486.861 230.423 489.69 227.009 493.334 224.569C496.977 222.093 501.187 220.854 505.962 220.854C509.606 220.854 512.878 221.597 515.778 223.083C518.679 224.569 521.031 226.85 522.835 229.928H522.941V198.941H536.312V278H523.154V269.457H523.047C521.279 272.712 518.909 275.135 515.937 276.727C513.001 278.318 509.712 279.114 506.068 279.114ZM509.199 267.919C513.585 267.919 517.087 266.291 519.705 263.037C522.358 259.747 523.684 255.379 523.684 249.931C523.684 244.484 522.358 240.133 519.705 236.879C517.087 233.589 513.585 231.944 509.199 231.944C505.06 231.944 501.717 233.5 499.171 236.613C496.624 239.726 495.35 244.165 495.35 249.931C495.35 255.733 496.624 260.19 499.171 263.302C501.717 266.38 505.06 267.919 509.199 267.919ZM564.197 278.902C558.608 278.902 553.974 277.505 550.295 274.71C546.651 271.88 544.83 267.671 544.83 262.082C544.83 257.837 545.855 254.565 547.907 252.266C549.994 249.931 552.7 248.233 556.025 247.172C559.386 246.111 562.994 245.386 566.85 244.997C572.049 244.395 575.675 243.865 577.727 243.405C579.778 242.945 580.804 241.76 580.804 239.85V239.425C580.804 237.02 579.885 235.057 578.045 233.536C576.241 232.015 573.747 231.254 570.564 231.254C567.309 231.254 564.656 232.015 562.605 233.536C560.588 235.057 559.492 237.002 559.315 239.372H546.421C546.74 233.819 549.057 229.344 553.372 225.948C557.688 222.552 563.507 220.854 570.829 220.854C578.116 220.854 583.811 222.552 587.914 225.948C592.018 229.344 594.069 233.96 594.069 239.797V278H580.91V270.094H580.698C579.354 272.57 577.408 274.657 574.862 276.355C572.315 278.053 568.76 278.902 564.197 278.902ZM567.486 268.98C571.873 268.98 575.198 267.848 577.461 265.584C579.725 263.285 580.857 260.508 580.857 257.254V251.205C580.044 251.735 578.47 252.231 576.135 252.69C573.8 253.115 571.253 253.539 568.494 253.964C565.629 254.388 563.135 255.202 561.013 256.405C558.926 257.572 557.882 259.429 557.882 261.976C557.882 264.169 558.749 265.885 560.482 267.123C562.216 268.361 564.55 268.98 567.486 268.98Z" fill="black"/>
<defs>
<clipPath id="clip0_1_335">
<rect width="96.7273" height="133" fill="white" transform="translate(251.636)"/>
</clipPath>
<clipPath id="clip1_1_335">
<rect width="40" height="40" fill="white" transform="translate(280 52)"/>
</clipPath>
</defs>
</svg>
